<svg clip-rule="evenodd" fill-rule="evenodd" stroke-linejoin="round" stroke-miterlimit="2" viewBox="0 0 1327 1411" xmlns="http://www.w3.org/2000/svg"><g fill="#e6007a"><ellipse cx="663" cy="147.9" rx="254.3" ry="147.9"/><ellipse cx="663" cy="1262.3" rx="254.3" ry="147.9"/><path d="m52.28 352.529c70.176-121.545 184.58-187.066 255.318-146.224s71.194 172.679 1.018 294.224c-70.176 121.544-184.58 187.065-255.318 146.223-70.738-40.841-71.194-172.679-1.018-294.223z"/><path d="m1017.45 909.762c70.176-121.545 184.541-187.088 255.231-146.274s71.107 172.629.931 294.174-184.541 187.088-255.231 146.274-71.107-172.629-.931-294.174z"/><path d="m53.333 763.454c70.738-40.841 185.142 24.679 255.318 146.224s69.72 253.382-1.018 294.224-185.142-24.679-255.318-146.224-69.72-253.382 1.018-294.224z"/><path d="m1018.44 206.337c70.69-40.814 185.055 24.729 255.231 146.274s69.759 253.36-.931 294.174-185.056-24.729-255.232-146.274c-70.175-121.545-69.758-253.36.932-294.174z"/></g></svg>